<svg aria-hidden="true" style="position: absolute; width: 0; height: 0; overflow: hidden;" version="1.1" xmlns="http://www.w3.org/2000/svg" xmlns:xlink="http://www.w3.org/1999/xlink">
<defs>
<symbol id="icon-facebook" viewBox="0 0 32 32">
<path d="M9.882-0.471c3.765 0 7.529 0 11.294 0 4.392 2.51 7.843 5.961 10.353 10.353 0 3.765 0 7.529 0 11.294-2.51 4.392-5.961 7.843-10.353 10.353-3.765 0-7.529 0-11.294 0-4.392-2.51-7.843-5.961-10.353-10.353 0-3.765 0-7.529 0-11.294 2.51-4.392 5.961-7.843 10.353-10.353z"></path>
<path d="M14.588 6.118c1.882 0 3.765 0 5.647 0 0 0.941 0 1.882 0 2.824-0.941 0-1.882 0-2.824 0 0 0.941 0 1.882 0 2.824 0.941 0 1.882 0 2.824 0 0 1.255 0 2.51 0 3.765-0.941 0-1.882 0-2.824 0 0 3.137 0 6.275 0 9.412-1.255 0-2.51 0-3.765 0 0.342-3.937-0.286-7.701-1.882-11.294 1.283-2.421 2.224-4.93 2.824-7.529z"></path>
</symbol>
<symbol id="icon-github" viewBox="0 0 32 32">
<path d="M9.882-0.471c3.765 0 7.529 0 11.294 0 4.392 2.51 7.843 5.961 10.353 10.353 0 3.765 0 7.529 0 11.294-2.51 4.392-5.961 7.843-10.353 10.353-3.765 0-7.529 0-11.294 0-4.392-2.51-7.843-5.961-10.353-10.353 0-3.765 0-7.529 0-11.294 2.51-4.392 5.961-7.843 10.353-10.353z"></path>
<path d="M11.765 19.294c-1.929 0.773-1.616 1.715 0.941 2.824 1.201 0.834 1.201 1.775 0 2.824-7.163-4.109-8.418-9.599-3.765-16.471 6.358-3.937 11.534-2.839 15.529 3.294 1.576 6.101-0.463 10.493-6.118 13.176-0.314-0.941-0.627-1.882-0.941-2.824 0.858-2.503 2.112-4.856 3.765-7.059-0.412-1.807-1.040-3.533-1.882-5.176-2.51 1.255-5.020 1.255-7.529 0-2.255 3.268-2.255 6.405 0 9.412z"></path>
<path d="M11.765 19.294c2.161 0.286 2.474 1.227 0.941 2.824-2.557-1.109-2.87-2.050-0.941-2.824z"></path>
</symbol>
<symbol id="icon-logo" viewBox="0 0 127 32">
<path fill="#d31641" style="fill: var(--color6, #d31641)" opacity="0.944" d="M11.2-0.32c3.2 0 6.4 0 9.6 0 11.791 6.361 14.245 15.321 7.36 26.88-1.99 1.886-4.23 3.38-6.72 4.48-0.096-0.673 0.011-1.313 0.32-1.92 1.493-0.64 2.56-1.707 3.2-3.2 0.179-3.434 0.819-6.634 1.92-9.6-0.703-3.843-2.516-7.149-5.44-9.92-8.896-3.334-14.016-0.241-15.36 9.28-0.375 0.134-0.695 0.347-0.96 0.64 1.101 2.966 1.741 6.166 1.92 9.6 0.64 1.493 1.707 2.56 3.2 3.2 0.309 0.607 0.416 1.247 0.32 1.92-5.14-2.154-8.767-5.78-10.88-10.88 0-2.987 0-5.973 0-8.96 2.347-5.333 6.187-9.173 11.52-11.52z"></path>
<path fill="#fceff2" style="fill: var(--color7, #fceff2)" opacity="0.991" d="M21.44 31.040c-0.427 0-0.64 0.213-0.64 0.64-0.427 0-0.853 0-1.28 0 0-0.853 0-1.707 0-2.56-2.347 0-4.693 0-7.040 0 0 0.853 0 1.707 0 2.56-0.427 0-0.853 0-1.28 0 0-0.427-0.213-0.64-0.64-0.64 0.096-0.673-0.011-1.313-0.32-1.92-1.493-0.64-2.56-1.707-3.2-3.2-0.179-3.434-0.819-6.634-1.92-9.6 0.265-0.293 0.585-0.506 0.96-0.64 1.344-9.521 6.464-12.614 15.36-9.28 2.924 2.771 4.737 6.077 5.44 9.92-1.101 2.966-1.741 6.166-1.92 9.6-0.64 1.493-1.707 2.56-3.2 3.2-0.309 0.607-0.416 1.247-0.32 1.92z"></path>
<path fill="#d3183f" style="fill: var(--color8, #d3183f)" d="M13.12 6.72c3.266-0.535 6.040 0.318 8.32 2.56-3.646 2.511-7.272 2.511-10.88 0 0.875-0.858 1.728-1.711 2.56-2.56z"></path>
<path fill="#d41341" style="fill: var(--color9, #d41341)" opacity="0.967" d="M49.6 14.4c-0.73 1.923-0.73 3.95 0 6.080-1.068 2.248-2.775 2.781-5.12 1.6-0.853-3.627-0.853-7.253 0-10.88 1.689-1.122 3.395-1.335 5.12-0.64 0 1.28 0 2.56 0 3.84z"></path>
<path fill="#d41441" style="fill: var(--color10, #d41441)" opacity="0.892" d="M49.6 14.4c2.149-3.882 5.349-5.056 9.6-3.52 1.446 3.336 0.486 4.51-2.88 3.52-1.508 0.891-1.828 2.065-0.96 3.52 1.11 0.417 2.177 0.31 3.2-0.32 2.183 3.21 1.33 4.916-2.56 5.12-4.969-0.498-7.102-3.271-6.4-8.32z"></path>
<path fill="#d41441" style="fill: var(--color10, #d41441)" opacity="0.918" d="M60.48 10.56c2.987 0 5.973 0 8.96 0-0.743 3.84-0.85 7.68-0.32 11.52-2.773 0.853-5.547 0.853-8.32 0-0.32-3.834-0.426-7.674-0.32-11.52z"></path>
<path fill="#d41341" style="fill: var(--color9, #d41341)" opacity="0.944" d="M80.32 13.76c0.1-0.879-0.006-1.732-0.32-2.56-2.721-1.762-5.388-1.656-8 0.32-2.281 3.043-2.495 6.243-0.64 9.6 2.846 1.933 5.726 2.040 8.64 0.32 2.109 1.611 4.243 1.611 6.4 0 1.627 1.496 3.44 1.71 5.44 0.64 0-0.64 0-1.28 0-1.92-1.415-1.276-1.628-2.77-0.64-4.48 0.853-1.067 0.853-2.133 0-3.2-0.398-1.174-1.252-1.921-2.56-2.24-2.133-0.427-4.267-0.427-6.4 0-0.93 1.055-1.57 2.229-1.92 3.52zM80.32 13.76c0 1.92 0 3.84 0 5.76-0.49-0.743-1.13-1.383-1.92-1.92-1.005 0.518-2.072 0.731-3.2 0.64-0.664-3.287 0.509-4.354 3.52-3.2 0.647-0.356 1.18-0.782 1.6-1.28z"></path>
<path fill="#d31441" style="fill: var(--color11, #d31441)" opacity="0.907" d="M127.040 10.56c0 3.84 0 7.68 0 11.52-5.45 0.063-10.89 0.276-16.32 0.64-1.475 0.010-2.542-0.63-3.2-1.92-0.756 1.188-1.823 1.828-3.2 1.92-4.15 0.085-8.31-0.129-12.48-0.64 0-0.64 0-1.28 0-1.92 0.193-1.638-0.020-3.131-0.64-4.48 0.853-1.067 0.853-2.133 0-3.2 0.491-0.43 0.918-0.963 1.28-1.6 2.979-0.319 5.965-0.426 8.96-0.32-0.77 2.499-1.196 4.952-1.28 7.36 0.863 0.494 1.396 1.241 1.6 2.24 0.853-2.987 1.707-5.973 2.56-8.96 2-0.824 4.026-0.824 6.080 0 1.257 3.108 2.217 6.308 2.88 9.6 0.124-3.36 0.444-6.667 0.96-9.92 3.516-1.095 5.542 0.079 6.080 3.52 0.783-3.559 3.023-4.839 6.72-3.84z"></path>
<path fill="#d3163c" style="fill: var(--color12, #d3163c)" d="M8.64 11.2c4.694 2.521 9.388 2.521 14.080 0 0.618 1.213 0.831 2.493 0.64 3.84-4.907 0-9.813 0-14.72 0 0-1.28 0-2.56 0-3.84z"></path>
<path fill="#d42341" style="fill: var(--color13, #d42341)" d="M6.72 16.96c6.187 0 12.373 0 18.56 0 0 0.64 0 1.28 0 1.92-1.92 0-3.84 0-5.76 0 0.197 1.551-0.017 3.045-0.64 4.48-0.375-0.134-0.695-0.347-0.96-0.64-0.317-1.263-0.424-2.543-0.32-3.84-3.627 0-7.253 0-10.88 0 0-0.64 0-1.28 0-1.92z"></path>
<path fill="#d52243" style="fill: var(--color14, #d52243)" d="M8.64 20.8c2.56 0 5.12 0 7.68 0-0.232 4.163 1.368 5.229 4.8 3.2 0.316-1.046 0.423-2.113 0.32-3.2 0.64 0 1.28 0 1.92 0 0.9 5.815-1.553 7.949-7.36 6.4-5.807 1.549-8.26-0.585-7.36-6.4z"></path>
<path fill="#d3183f" style="fill: var(--color8, #d3183f)" opacity="0.938" d="M19.52 31.68c-2.347 0-4.693 0-7.040 0 0-0.853 0-1.707 0-2.56 2.347 0 4.693 0 7.040 0 0 0.853 0 1.707 0 2.56z"></path>
</symbol>
<symbol id="icon-mob-menu-clos" viewBox="0 0 32 32">
<path d="M1-1c0.667 0 1.333 0 2 0 3.291 4.624 7.291 8.624 12 12 3.632-2.63 6.965-5.63 10-9 1.896-0.966 3.896-1.299 6-1 0 0.667 0 1.333 0 2-4.624 3.291-8.624 7.291-12 12 2.63 3.632 5.63 6.965 9 10 0.966 1.896 1.299 3.896 1 6-0.667 0-1.333 0-2 0-3.291-4.624-7.291-8.624-12-12-3.632 2.63-6.965 5.63-10 9-1.896 0.966-3.896 1.299-6 1 0-0.667 0-1.333 0-2 4.624-3.291 8.624-7.291 12-12-2.63-3.632-5.63-6.965-9-10-0.966-1.896-1.299-3.896-1-6z"></path>
</symbol>
<symbol id="icon-mob-menu-open" viewBox="0 0 46 32">
<path d="M-1.143-1.143c15.238 0 30.476 0 45.714 0 0 1.524 0 3.048 0 4.571-15.238 0-30.476 0-45.714 0 0-1.524 0-3.048 0-4.571z"></path>
<path d="M-1.143 12.571c15.238 0 30.476 0 45.714 0 0 1.524 0 3.048 0 4.571-15.238 0-30.476 0-45.714 0 0-1.524 0-3.048 0-4.571z"></path>
<path d="M-1.143 26.286c15.238 0 30.476 0 45.714 0 0 1.524 0 3.048 0 4.571-15.238 0-30.476 0-45.714 0 0-1.524 0-3.048 0-4.571z"></path>
</symbol>
<symbol id="icon-more" viewBox="0 0 26 32">
<path d="M-1.6-1.6c3.2 0 6.4 0 9.6 0 5.9 4.019 10.167 9.353 12.8 16-2.633 6.647-6.9 11.981-12.8 16-3.2 0-6.4 0-9.6 0 0-2.133 0-4.267 0-6.4 12.8-6.4 12.8-12.8 0-19.2 0-2.133 0-4.267 0-6.4z"></path>
</symbol>
<symbol id="icon-product" viewBox="0 0 32 32">
<path d="M10-0.4c3.733 0 7.467 0 11.2 0 1.815 1.181 3.682 2.381 5.6 3.6 1.802 2.189 3.402 4.456 4.8 6.8 0 3.733 0 7.467 0 11.2-1.181 1.815-2.381 3.682-3.6 5.6-2.189 1.802-4.456 3.402-6.8 4.8-3.733 0-7.467 0-11.2 0-1.815-1.181-3.682-2.381-5.6-3.6-1.802-2.189-3.402-4.456-4.8-6.8 0-3.733 0-7.467 0-11.2 1.181-1.815 2.381-3.682 3.6-5.6 2.189-1.802 4.456-3.402 6.8-4.8z"></path>
<path d="M15.6 11.6c5.893 2.17 6.16 4.836 0.8 8-0.875-1.094-0.608-2.028 0.8-2.8-7.467-0.8-7.467-1.6 0-2.4-1.058-0.653-1.592-1.586-1.6-2.8z"></path>
</symbol>
<symbol id="icon-product-3" viewBox="0 0 139 32">
<path d="M2.667-2.667c7.111 0 14.222 0 21.333 0 7.111 10.667 7.111 21.333 0 32-7.111 0-14.222 0-21.333 0 0-3.556-1.778-5.333-5.333-5.333 0-7.111 0-14.222 0-21.333 3.556 0 5.333-1.778 5.333-5.333z"></path>
<path d="M56-2.667c7.111 0 14.222 0 21.333 0 7.111 10.667 7.111 21.333 0 32-7.111 0-14.222 0-21.333 0-7.111-10.667-7.111-21.333 0-32z"></path>
<path d="M109.333-2.667c7.111 0 14.222 0 21.333 0 0 3.556 1.778 5.333 5.333 5.333 0 7.111 0 14.222 0 21.333-3.556 0-5.333 1.778-5.333 5.333-7.111 0-14.222 0-21.333 0-7.111-10.667-7.111-21.333 0-32z"></path>
</symbol>
<symbol id="icon-telegram" viewBox="0 0 32 32">
<path d="M9.882-0.471c3.765 0 7.529 0 11.294 0 4.392 2.51 7.843 5.961 10.353 10.353 0 3.765 0 7.529 0 11.294-2.51 4.392-5.961 7.843-10.353 10.353-3.765 0-7.529 0-11.294 0-4.392-2.51-7.843-5.961-10.353-10.353 0-3.765 0-7.529 0-11.294 2.51-4.392 5.961-7.843 10.353-10.353z"></path>
<path d="M21.176 8c0.941 0 1.882 0 2.824 0-0.664 5.165-1.919 10.185-3.765 15.059-1.725-0.704-3.293-1.646-4.706-2.824-0.941 0.627-1.882 1.255-2.824 1.882-1.255-1.569-1.255-3.137 0-4.706 8.803-6.579 8.489-7.049-0.941-1.412-2.403 0.801-4.599 0.488-6.588-0.941 5.357-2.459 10.691-4.812 16-7.059z"></path>
</symbol>
</defs>
</svg>
